<svg width="309" height="34" viewBox="0 0 309 34" fill="none" xmlns="http://www.w3.org/2000/svg">
<rect x="0.335693" y="0.142822" width="32" height="32" rx="8" fill="#206ECF"/>
<path d="M8.33569 10.0252C8.33569 8.98558 9.17845 8.14282 10.218 8.14282H13.0416C14.0812 8.14282 14.9239 8.98558 14.9239 10.0252V12.8487C14.9239 13.8883 14.0812 14.7311 13.0416 14.7311H10.218C9.17845 14.7311 8.33569 13.8883 8.33569 12.8487V10.0252Z" fill="white"/>
<path d="M8.33569 18.4958C8.33569 17.4562 9.17845 16.6134 10.218 16.6134H13.0416C14.0812 16.6134 14.9239 17.4562 14.9239 18.4958V21.3193C14.9239 22.3589 14.0812 23.2016 13.0416 23.2016H10.218C9.17845 23.2016 8.33569 22.3589 8.33569 21.3193V18.4958Z" fill="white"/>
<path d="M16.8063 10.0252C16.8063 8.98558 17.649 8.14282 18.6886 8.14282H21.5122C22.5518 8.14282 23.3945 8.98558 23.3945 10.0252V12.8487C23.3945 13.8883 22.5518 14.7311 21.5122 14.7311H18.6886C17.649 14.7311 16.8063 13.8883 16.8063 12.8487V10.0252Z" fill="white"/>
<path d="M16.8063 18.4958C16.8063 17.4562 17.649 16.6134 18.6886 16.6134H22.4533C23.4929 16.6134 24.3357 17.4562 24.3357 18.4958V22.2605C24.3357 23.3001 23.4929 24.1428 22.4533 24.1428H18.6886C17.649 24.1428 16.8063 23.3001 16.8063 22.2605V18.4958Z" fill="white"/>
<path d="M49.1757 15.7428C49.1757 14.0948 49.5437 12.6228 50.2797 11.3268C51.0317 10.0148 52.0477 8.99882 53.3277 8.27882C54.6237 7.54282 56.0717 7.17482 57.6717 7.17482C59.5437 7.17482 61.1837 7.65482 62.5917 8.61482C63.9997 9.57482 64.9837 10.9028 65.5437 12.5988H61.6797C61.2957 11.7988 60.7517 11.1988 60.0477 10.7988C59.3597 10.3988 58.5597 10.1988 57.6477 10.1988C56.6717 10.1988 55.7997 10.4308 55.0317 10.8948C54.2797 11.3428 53.6877 11.9828 53.2557 12.8148C52.8397 13.6468 52.6317 14.6228 52.6317 15.7428C52.6317 16.8468 52.8397 17.8228 53.2557 18.6708C53.6877 19.5028 54.2797 20.1508 55.0317 20.6148C55.7997 21.0628 56.6717 21.2868 57.6477 21.2868C58.5597 21.2868 59.3597 21.0868 60.0477 20.6868C60.7517 20.2708 61.2957 19.6628 61.6797 18.8628H65.5437C64.9837 20.5748 63.9997 21.9108 62.5917 22.8708C61.1997 23.8148 59.5597 24.2868 57.6717 24.2868C56.0717 24.2868 54.6237 23.9268 53.3277 23.2068C52.0477 22.4708 51.0317 21.4548 50.2797 20.1588C49.5437 18.8628 49.1757 17.3908 49.1757 15.7428ZM74.3176 24.3588C73.0376 24.3588 71.8856 24.0788 70.8616 23.5188C69.8376 22.9428 69.0296 22.1348 68.4376 21.0948C67.8616 20.0548 67.5736 18.8548 67.5736 17.4948C67.5736 16.1348 67.8696 14.9348 68.4616 13.8948C69.0696 12.8548 69.8936 12.0548 70.9336 11.4948C71.9736 10.9188 73.1336 10.6308 74.4136 10.6308C75.6936 10.6308 76.8536 10.9188 77.8936 11.4948C78.9336 12.0548 79.7496 12.8548 80.3416 13.8948C80.9496 14.9348 81.2536 16.1348 81.2536 17.4948C81.2536 18.8548 80.9416 20.0548 80.3176 21.0948C79.7096 22.1348 78.8776 22.9428 77.8216 23.5188C76.7816 24.0788 75.6136 24.3588 74.3176 24.3588ZM74.3176 21.4308C74.9256 21.4308 75.4936 21.2868 76.0216 20.9988C76.5656 20.6948 76.9976 20.2468 77.3176 19.6548C77.6376 19.0628 77.7976 18.3428 77.7976 17.4948C77.7976 16.2308 77.4616 15.2628 76.7896 14.5908C76.1336 13.9028 75.3256 13.5588 74.3656 13.5588C73.4056 13.5588 72.5976 13.9028 71.9416 14.5908C71.3016 15.2628 70.9816 16.2308 70.9816 17.4948C70.9816 18.7588 71.2936 19.7348 71.9176 20.4228C72.5576 21.0948 73.3576 21.4308 74.3176 21.4308ZM87.0783 12.7668C87.5103 12.1588 88.1023 11.6548 88.8543 11.2548C89.6223 10.8388 90.4943 10.6308 91.4703 10.6308C92.6063 10.6308 93.6303 10.9108 94.5423 11.4708C95.4703 12.0308 96.1983 12.8308 96.7263 13.8708C97.2703 14.8948 97.5423 16.0868 97.5423 17.4468C97.5423 18.8068 97.2703 20.0148 96.7263 21.0708C96.1983 22.1108 95.4703 22.9188 94.5423 23.4948C93.6303 24.0708 92.6063 24.3588 91.4703 24.3588C90.4943 24.3588 89.6303 24.1588 88.8783 23.7588C88.1423 23.3588 87.5423 22.8548 87.0783 22.2468V30.4788H83.7183V10.8468H87.0783V12.7668ZM94.1103 17.4468C94.1103 16.6468 93.9423 15.9588 93.6063 15.3828C93.2863 14.7908 92.8543 14.3428 92.3103 14.0388C91.7823 13.7348 91.2063 13.5828 90.5823 13.5828C89.9743 13.5828 89.3983 13.7428 88.8543 14.0628C88.3263 14.3668 87.8943 14.8148 87.5583 15.4068C87.2383 15.9988 87.0783 16.6948 87.0783 17.4948C87.0783 18.2948 87.2383 18.9908 87.5583 19.5828C87.8943 20.1748 88.3263 20.6308 88.8543 20.9508C89.3983 21.2548 89.9743 21.4068 90.5823 21.4068C91.2063 21.4068 91.7823 21.2468 92.3103 20.9268C92.8543 20.6068 93.2863 20.1508 93.6063 19.5588C93.9423 18.9668 94.1103 18.2628 94.1103 17.4468ZM105.888 24.3588C104.608 24.3588 103.456 24.0788 102.432 23.5188C101.408 22.9428 100.6 22.1348 100.008 21.0948C99.4319 20.0548 99.1439 18.8548 99.1439 17.4948C99.1439 16.1348 99.4399 14.9348 100.032 13.8948C100.64 12.8548 101.464 12.0548 102.504 11.4948C103.544 10.9188 104.704 10.6308 105.984 10.6308C107.264 10.6308 108.424 10.9188 109.464 11.4948C110.504 12.0548 111.32 12.8548 111.912 13.8948C112.52 14.9348 112.824 16.1348 112.824 17.4948C112.824 18.8548 112.512 20.0548 111.888 21.0948C111.28 22.1348 110.448 22.9428 109.392 23.5188C108.352 24.0788 107.184 24.3588 105.888 24.3588ZM105.888 21.4308C106.496 21.4308 107.064 21.2868 107.592 20.9988C108.136 20.6948 108.568 20.2468 108.888 19.6548C109.208 19.0628 109.368 18.3428 109.368 17.4948C109.368 16.2308 109.032 15.2628 108.36 14.5908C107.704 13.9028 106.896 13.5588 105.936 13.5588C104.976 13.5588 104.168 13.9028 103.512 14.5908C102.872 15.2628 102.552 16.2308 102.552 17.4948C102.552 18.7588 102.864 19.7348 103.488 20.4228C104.128 21.0948 104.928 21.4308 105.888 21.4308ZM118.649 12.9108C119.081 12.2068 119.641 11.6548 120.329 11.2548C121.033 10.8548 121.833 10.6548 122.729 10.6548V14.1828H121.841C120.785 14.1828 119.985 14.4308 119.441 14.9268C118.913 15.4228 118.649 16.2868 118.649 17.5188V24.1428H115.289V10.8468H118.649V12.9108ZM124.128 17.4468C124.128 16.1028 124.392 14.9108 124.92 13.8708C125.464 12.8308 126.192 12.0308 127.104 11.4708C128.032 10.9108 129.064 10.6308 130.2 10.6308C131.192 10.6308 132.056 10.8308 132.792 11.2308C133.544 11.6308 134.144 12.1348 134.592 12.7428V10.8468H137.976V24.1428H134.592V22.1988C134.16 22.8228 133.56 23.3428 132.792 23.7588C132.04 24.1588 131.168 24.3588 130.176 24.3588C129.056 24.3588 128.032 24.0708 127.104 23.4948C126.192 22.9188 125.464 22.1108 124.92 21.0708C124.392 20.0148 124.128 18.8068 124.128 17.4468ZM134.592 17.4948C134.592 16.6788 134.432 15.9828 134.112 15.4068C133.792 14.8148 133.36 14.3668 132.816 14.0628C132.272 13.7428 131.688 13.5828 131.064 13.5828C130.44 13.5828 129.864 13.7348 129.336 14.0388C128.808 14.3428 128.376 14.7908 128.04 15.3828C127.72 15.9588 127.56 16.6468 127.56 17.4468C127.56 18.2468 127.72 18.9508 128.04 19.5588C128.376 20.1508 128.808 20.6068 129.336 20.9268C129.88 21.2468 130.456 21.4068 131.064 21.4068C131.688 21.4068 132.272 21.2548 132.816 20.9508C133.36 20.6308 133.792 20.1828 134.112 19.6068C134.432 19.0148 134.592 18.3108 134.592 17.4948ZM145.169 13.6068V20.0388C145.169 20.4868 145.273 20.8148 145.481 21.0228C145.705 21.2148 146.073 21.3108 146.585 21.3108H148.145V24.1428H146.033C143.201 24.1428 141.785 22.7668 141.785 20.0148V13.6068H140.201V10.8468H141.785V7.55882H145.169V10.8468H148.145V13.6068H145.169ZM152.266 9.26282C151.674 9.26282 151.178 9.07882 150.778 8.71082C150.394 8.32682 150.202 7.85482 150.202 7.29482C150.202 6.73482 150.394 6.27082 150.778 5.90282C151.178 5.51882 151.674 5.32682 152.266 5.32682C152.858 5.32682 153.346 5.51882 153.73 5.90282C154.13 6.27082 154.33 6.73482 154.33 7.29482C154.33 7.85482 154.13 8.32682 153.73 8.71082C153.346 9.07882 152.858 9.26282 152.266 9.26282ZM153.922 10.8468V24.1428H150.562V10.8468H153.922ZM163.146 24.3588C161.866 24.3588 160.714 24.0788 159.69 23.5188C158.666 22.9428 157.858 22.1348 157.266 21.0948C156.69 20.0548 156.402 18.8548 156.402 17.4948C156.402 16.1348 156.698 14.9348 157.29 13.8948C157.898 12.8548 158.722 12.0548 159.762 11.4948C160.802 10.9188 161.962 10.6308 163.242 10.6308C164.522 10.6308 165.682 10.9188 166.722 11.4948C167.762 12.0548 168.578 12.8548 169.17 13.8948C169.778 14.9348 170.082 16.1348 170.082 17.4948C170.082 18.8548 169.77 20.0548 169.146 21.0948C168.538 22.1348 167.706 22.9428 166.65 23.5188C165.61 24.0788 164.442 24.3588 163.146 24.3588ZM163.146 21.4308C163.754 21.4308 164.322 21.2868 164.85 20.9988C165.394 20.6948 165.826 20.2468 166.146 19.6548C166.466 19.0628 166.626 18.3428 166.626 17.4948C166.626 16.2308 166.29 15.2628 165.618 14.5908C164.962 13.9028 164.154 13.5588 163.194 13.5588C162.234 13.5588 161.426 13.9028 160.77 14.5908C160.13 15.2628 159.81 16.2308 159.81 17.4948C159.81 18.7588 160.122 19.7348 160.746 20.4228C161.386 21.0948 162.186 21.4308 163.146 21.4308ZM179.914 10.6548C181.498 10.6548 182.778 11.1588 183.754 12.1668C184.73 13.1588 185.218 14.5508 185.218 16.3428V24.1428H181.858V16.7988C181.858 15.7428 181.594 14.9348 181.066 14.3748C180.538 13.7988 179.818 13.5108 178.906 13.5108C177.978 13.5108 177.242 13.7988 176.698 14.3748C176.17 14.9348 175.906 15.7428 175.906 16.7988V24.1428H172.546V10.8468H175.906V12.5028C176.354 11.9268 176.922 11.4788 177.61 11.1588C178.314 10.8228 179.082 10.6548 179.914 10.6548ZM193.502 24.3588C192.414 24.3588 191.438 24.1668 190.574 23.7828C189.71 23.3828 189.022 22.8468 188.51 22.1748C188.014 21.5028 187.742 20.7588 187.694 19.9428H191.078C191.142 20.4548 191.39 20.8788 191.822 21.2148C192.27 21.5508 192.822 21.7188 193.478 21.7188C194.118 21.7188 194.614 21.5908 194.966 21.3348C195.334 21.0788 195.518 20.7508 195.518 20.3508C195.518 19.9188 195.294 19.5988 194.846 19.3908C194.414 19.1668 193.718 18.9268 192.758 18.6708C191.766 18.4308 190.95 18.1828 190.31 17.9268C189.686 17.6708 189.142 17.2788 188.678 16.7508C188.23 16.2228 188.006 15.5108 188.006 14.6148C188.006 13.8788 188.214 13.2068 188.63 12.5988C189.062 11.9908 189.67 11.5108 190.454 11.1588C191.254 10.8068 192.19 10.6308 193.262 10.6308C194.846 10.6308 196.11 11.0308 197.054 11.8308C197.998 12.6148 198.518 13.6788 198.614 15.0228H195.398C195.35 14.4948 195.126 14.0788 194.726 13.7748C194.342 13.4548 193.822 13.2948 193.166 13.2948C192.558 13.2948 192.086 13.4068 191.75 13.6308C191.43 13.8548 191.27 14.1668 191.27 14.5668C191.27 15.0148 191.494 15.3588 191.942 15.5988C192.39 15.8228 193.086 16.0548 194.03 16.2948C194.99 16.5348 195.782 16.7828 196.406 17.0388C197.03 17.2948 197.566 17.6948 198.014 18.2388C198.478 18.7668 198.718 19.4708 198.734 20.3508C198.734 21.1188 198.518 21.8068 198.086 22.4148C197.67 23.0228 197.062 23.5028 196.262 23.8548C195.478 24.1908 194.558 24.3588 193.502 24.3588Z" fill="#363C45"/>
</svg>
