<svg width="19" height="19" viewBox="0 0 19 19" fill="none" xmlns="http://www.w3.org/2000/svg">
<g clip-path="url(#clip0_151_448)">
<path d="M9.5 0.256836C7.71997 0.256836 5.97991 0.784677 4.49987 1.77361C3.01983 2.76254 1.86628 4.16815 1.18509 5.81269C0.5039 7.45722 0.32567 9.26682 0.672937 11.0127C1.0202 12.7585 1.87737 14.3621 3.13604 15.6208C4.39472 16.8795 5.99836 17.7366 7.74419 18.0839C9.49002 18.4312 11.2996 18.2529 12.9442 17.5718C14.5887 16.8906 15.9943 15.737 16.9832 14.257C17.9722 12.7769 18.5 11.0369 18.5 9.25684C18.4974 6.87068 17.5484 4.58299 15.8611 2.89573C14.1738 1.20846 11.8862 0.259417 9.5 0.256836V0.256836ZM11.9165 5.50684H7.0835C7.72008 4.25004 8.53389 3.09121 9.5 2.06584C10.4665 3.09092 11.2803 4.2498 11.9165 5.50684ZM12.5165 7.00684C12.747 7.73484 12.8673 8.49323 12.8735 9.25684C12.8673 10.0204 12.747 10.7788 12.5165 11.5068H6.482C6.25149 10.7788 6.13116 10.0204 6.125 9.25684C6.13116 8.49323 6.25149 7.73484 6.482 7.00684H12.5165ZM7.55 2.02384C6.68575 3.08117 5.97244 4.25336 5.4305 5.50684H3.01475C4.00915 3.79416 5.63875 2.54265 7.55 2.02384ZM2 9.25684C1.99994 8.4936 2.11653 7.73484 2.34575 7.00684H4.925C4.73057 7.7412 4.62977 8.49719 4.625 9.25684C4.62977 10.0165 4.73057 10.7725 4.925 11.5068H2.34575C2.11653 10.7788 1.99994 10.0201 2 9.25684ZM3.01475 13.0068H5.4305C5.97244 14.2603 6.68575 15.4325 7.55 16.4898C5.63875 15.971 4.00915 14.7195 3.01475 13.0068ZM7.0835 13.0068H11.9165C11.2799 14.2636 10.4661 15.4225 9.5 16.4478C8.53353 15.4228 7.71968 14.2639 7.0835 13.0068ZM11.4538 16.4898C12.3167 15.4323 13.0287 14.2601 13.5695 13.0068H15.9853C14.9917 14.7187 13.3636 15.9701 11.4538 16.4898ZM17 9.25684C17.0001 10.0201 16.8835 10.7788 16.6543 11.5068H14.075C14.2694 10.7725 14.3702 10.0165 14.375 9.25684C14.3702 8.49719 14.2694 7.7412 14.075 7.00684H16.6528C16.8825 7.73476 16.9996 8.49352 17 9.25684ZM13.5695 5.50684C13.0287 4.25358 12.3167 3.0814 11.4538 2.02384C13.3636 2.54353 14.9917 3.79494 15.9853 5.50684H13.5695Z" fill="white"/>
</g>
<defs>
<clipPath id="clip0_151_448">
<rect width="18" height="18" fill="white" transform="translate(0.5 0.256836)"/>
</clipPath>
</defs>
</svg>
