<svg width="16" height="15" viewBox="0 0 16 15" fill="none" xmlns="http://www.w3.org/2000/svg">
<g clip-path="url(#clip0_151_427)">
<path fill-rule="evenodd" clip-rule="evenodd" d="M13.6405 10.481C13.6405 11.969 12.4885 13.1772 11.0732 13.1772H4.92789C3.51258 13.1772 2.36058 11.969 2.36058 10.481V4.02843C2.36058 2.54181 3.51258 1.33359 4.92789 1.33359H11.0732C12.4885 1.33359 13.6405 2.54181 13.6405 4.02843V10.481ZM11.0732 0.0554199H4.92789C2.84058 0.0554199 1.14345 1.83758 1.14345 4.02843V10.481C1.14345 12.6732 2.84058 14.4553 4.92857 14.4553H11.0725C13.1605 14.4553 14.8577 12.6732 14.8577 10.481V4.02843C14.8577 1.83758 13.1605 0.0554199 11.0725 0.0554199H11.0732Z" fill="#B6C0CD"/>
<path fill-rule="evenodd" clip-rule="evenodd" d="M8.00083 10.294C7.28585 10.2935 6.60031 10.0092 6.09468 9.50375C5.58905 8.99825 5.30466 8.31277 5.30393 7.5978C5.30447 6.88257 5.58874 6.19678 6.09435 5.69091C6.59996 5.18505 7.28561 4.90043 8.00083 4.89952C8.71611 4.90025 9.40186 5.18481 9.90751 5.69071C10.4132 6.19662 10.6974 6.88252 10.6977 7.5978C10.6968 8.31265 10.4124 8.99795 9.90674 9.5033C9.40113 10.0087 8.71569 10.2928 8.00083 10.2933V10.294ZM8.00083 3.48422C5.7325 3.48422 3.88657 5.32878 3.88657 7.5978C3.88784 8.68864 4.32169 9.73445 5.09297 10.5059C5.86425 11.2773 6.90999 11.7113 8.00083 11.7127C10.2692 11.7127 12.1151 9.86544 12.1151 7.5978C12.1138 6.50708 11.6799 5.46141 10.9086 4.69022C10.1373 3.91903 9.09155 3.4853 8.00083 3.48422ZM11.0872 2.11279C10.817 2.11279 10.5503 2.22114 10.3604 2.41313C10.1697 2.60513 10.058 2.86982 10.058 3.13999C10.058 3.41084 10.1697 3.67621 10.3597 3.86821C10.5503 4.05816 10.817 4.16993 11.0872 4.16993C11.3581 4.16993 11.6228 4.05816 11.8134 3.86821C12.0054 3.67621 12.1151 3.41084 12.1151 3.14067C12.1152 3.00567 12.0887 2.87196 12.037 2.74721C11.9854 2.62247 11.9097 2.50912 11.8142 2.41365C11.7188 2.31819 11.6054 2.24248 11.4807 2.19085C11.3559 2.13923 11.2222 2.1127 11.0872 2.11279Z" fill="#B6C0CD"/>
</g>
<defs>
<clipPath id="clip0_151_427">
<rect x="0.799805" y="0.057373" width="14.3999" height="14.3999" fill="white"/>
</clipPath>
</defs>
</svg>
