<svg width="1074" height="1592" viewBox="0 0 1074 1592" fill="none" xmlns="http://www.w3.org/2000/svg">
<path opacity="0.0344828" d="M292.459 485.875C295.411 476.021 302.657 467.478 314.19 460.312C325.743 453.134 341.45 447.438 360.963 443.283C399.986 434.974 453.651 432.947 518.233 437.056C647.351 445.27 819.477 477.963 1003.97 533.23C1188.45 588.497 1350.2 655.823 1462.57 719.95C1518.78 752.025 1562.49 783.223 1590.52 811.618C1604.53 825.817 1614.52 839.211 1620.22 851.559C1625.92 863.885 1627.27 875.005 1624.32 884.859C1621.37 894.712 1614.12 903.255 1602.59 910.421C1591.04 917.599 1575.33 923.296 1555.82 927.45C1516.79 935.76 1463.13 937.786 1398.55 933.678C1269.43 925.463 1097.3 892.77 912.815 837.503C728.327 782.237 566.576 714.911 454.207 650.783C398.003 618.708 354.291 587.511 326.263 559.115C312.249 544.916 302.26 531.523 296.557 519.175C290.863 506.848 289.507 495.728 292.459 485.875Z" stroke="url(#paint0_linear_1_411)" stroke-opacity="0.5" stroke-width="5.57251"/>
<path opacity="0.0689655" d="M310.173 423.48C313.972 413.921 321.935 406.042 334.049 399.909C346.184 393.765 362.327 389.459 382.128 387.021C421.727 382.144 475.365 384.802 539.343 394.524C667.254 413.96 835.875 461.531 1014.84 532.667C1193.81 603.802 1349.08 684.97 1455.43 758.646C1508.63 795.498 1549.45 830.387 1574.9 861.117C1587.62 876.483 1596.41 890.696 1601.01 903.494C1605.61 916.27 1605.99 927.466 1602.19 937.025C1598.39 946.584 1590.43 954.463 1578.32 960.596C1566.18 966.74 1550.04 971.046 1530.24 973.484C1490.64 978.361 1437 975.702 1373.02 965.981C1245.11 946.544 1076.49 898.974 897.522 827.838C718.552 756.702 563.284 675.535 456.933 601.858C403.738 565.007 362.911 530.118 337.465 499.388C324.741 484.022 315.958 469.808 311.352 457.01C306.754 444.234 306.373 433.039 310.173 423.48Z" stroke="url(#paint1_linear_1_411)" stroke-opacity="0.5" stroke-width="5.57251"/>
<path opacity="0.103448" d="M332.804 363.036C337.422 353.844 346.041 346.689 358.644 341.635C371.268 336.572 387.726 333.69 407.664 332.986C447.537 331.58 500.739 338.903 563.626 354.164C689.356 384.674 853.19 446.76 1025.28 533.223C1197.37 619.686 1344.97 714.077 1444.49 796.743C1494.28 838.09 1531.91 876.405 1554.58 909.236C1565.91 925.652 1573.42 940.577 1576.9 953.728C1580.36 966.856 1579.77 978.042 1575.15 987.233C1570.53 996.425 1561.91 1003.58 1549.31 1008.63C1536.69 1013.7 1520.23 1016.58 1500.29 1017.28C1460.42 1018.69 1407.22 1011.37 1344.33 996.105C1218.6 965.595 1054.76 903.509 882.676 817.046C710.587 730.583 562.985 636.192 463.459 553.526C413.679 512.179 376.048 473.864 353.377 441.033C342.041 424.617 334.53 409.692 331.057 396.541C327.59 383.413 328.186 372.227 332.804 363.036Z" stroke="url(#paint2_linear_1_411)" stroke-opacity="0.5" stroke-width="5.57251"/>
<path opacity="0.137931" d="M360.163 304.966C365.565 296.212 374.775 289.836 387.77 285.899C400.787 281.956 417.433 280.519 437.357 281.556C477.201 283.63 529.562 295.562 590.88 316.245C713.472 357.598 871.272 433.727 1035.17 534.859C1199.07 635.992 1337.88 742.888 1429.82 833.913C1475.81 879.442 1509.96 920.89 1529.68 955.572C1539.54 972.915 1545.73 988.437 1548.04 1001.84C1550.35 1015.22 1548.78 1026.31 1543.38 1035.07C1537.98 1043.82 1528.77 1050.2 1515.77 1054.13C1502.76 1058.08 1486.11 1059.51 1466.19 1058.48C1426.34 1056.4 1373.98 1044.47 1312.66 1023.79C1190.07 982.435 1032.27 906.306 868.373 805.173C704.475 704.041 565.661 597.145 473.719 506.119C427.732 460.591 393.583 419.142 373.86 384.46C363.998 367.118 357.816 351.595 355.503 338.192C353.193 324.812 354.762 313.72 360.163 304.966Z" stroke="url(#paint3_linear_1_411)" stroke-opacity="0.5" stroke-width="5.57251"/>
<path opacity="0.172414" d="M392.022 249.678C398.166 241.429 407.897 235.879 421.186 233.09C434.497 230.296 451.205 230.315 470.963 233.085C510.474 238.624 561.596 255.074 620.878 281.023C739.4 332.903 889.963 422.495 1044.42 537.527C1198.88 652.56 1327.85 771.148 1411.51 869.84C1453.36 919.203 1483.76 963.47 1500.39 999.739C1508.7 1017.87 1513.51 1033.88 1514.64 1047.43C1515.78 1060.96 1513.25 1071.87 1507.1 1080.12C1500.96 1088.37 1491.23 1093.92 1477.94 1096.71C1464.63 1099.51 1447.92 1099.49 1428.16 1096.72C1388.65 1091.18 1337.53 1074.73 1278.25 1048.78C1159.73 996.9 1009.16 907.308 854.702 792.275C700.242 677.243 571.273 558.655 487.614 459.963C445.77 410.6 415.364 366.333 398.739 330.064C390.425 311.928 385.62 295.926 384.484 282.372C383.349 268.841 385.878 257.928 392.022 249.678Z" stroke="url(#paint4_linear_1_411)" stroke-opacity="0.5" stroke-width="5.57251"/>
<path opacity="0.206897" d="M428.128 197.547C434.968 189.864 445.145 185.184 458.627 183.564C472.131 181.941 488.774 183.416 508.214 187.897C547.093 196.858 596.587 217.702 653.381 248.719C766.931 310.731 909.113 413.105 1052.96 541.162C1196.81 669.218 1314.95 798.595 1389.69 904.203C1427.07 957.026 1453.5 1003.77 1466.9 1041.35C1473.6 1060.15 1477 1076.51 1476.95 1090.11C1476.9 1103.69 1473.43 1114.34 1466.59 1122.02C1459.75 1129.7 1449.57 1134.38 1436.09 1136C1422.59 1137.63 1405.94 1136.15 1386.5 1131.67C1347.62 1122.71 1298.13 1101.86 1241.33 1070.85C1127.79 1008.84 985.604 906.462 841.757 778.405C697.911 650.348 579.768 520.971 505.029 415.363C467.646 362.541 441.214 315.792 427.813 278.212C421.112 259.421 417.72 243.061 417.769 229.459C417.818 215.881 421.289 205.23 428.128 197.547Z" stroke="url(#paint5_linear_1_411)" stroke-opacity="0.5" stroke-width="5.57251"/>
<path opacity="0.241379" d="M468.182 148.935C475.665 141.877 486.211 138.102 499.782 137.662C513.377 137.223 529.828 140.143 548.804 146.301C586.754 158.617 634.242 183.694 688.118 219.543C795.83 291.216 928.549 405.592 1060.69 545.699C1192.82 685.805 1299.24 824.987 1364.49 936.707C1397.13 992.586 1419.39 1041.46 1429.46 1080.07C1434.5 1099.37 1436.45 1115.96 1435.22 1129.51C1433.99 1143.03 1429.6 1153.34 1422.12 1160.4C1414.63 1167.45 1404.09 1171.23 1390.52 1171.67C1376.92 1172.11 1360.47 1169.19 1341.49 1163.03C1303.54 1150.71 1256.06 1125.64 1202.18 1089.79C1094.47 1018.11 961.749 903.738 829.611 763.632C697.473 623.525 591.056 484.344 525.805 372.624C493.169 316.744 470.912 267.87 460.837 229.265C455.799 209.961 453.846 193.368 455.08 179.822C456.312 166.3 460.698 155.992 468.182 148.935Z" stroke="url(#paint6_linear_1_411)" stroke-opacity="0.5" stroke-width="5.57251"/>
<path opacity="0.275862" d="M511.869 104.175C519.939 97.796 530.775 94.9541 544.332 95.6994C557.913 96.446 574.047 100.789 592.415 108.578C629.146 124.154 674.269 153.275 724.814 193.683C825.87 274.471 948.115 399.979 1067.54 551.069C1186.96 702.159 1280.85 850.086 1336.11 967.068C1363.75 1025.58 1381.67 1076.21 1388.34 1115.54C1391.67 1135.21 1392.17 1151.91 1389.76 1165.3C1387.36 1178.66 1382.09 1188.55 1374.02 1194.93C1365.95 1201.31 1355.11 1204.15 1341.56 1203.4C1327.98 1202.66 1311.84 1198.31 1293.47 1190.52C1256.74 1174.95 1211.62 1145.83 1161.07 1105.42C1060.02 1024.63 937.774 899.123 818.349 748.033C698.925 596.943 605.043 449.017 549.778 332.035C522.136 273.523 504.223 222.895 497.552 183.559C494.215 163.89 493.716 147.189 496.126 133.803C498.532 120.439 503.8 110.553 511.869 104.175Z" stroke="url(#paint7_linear_1_411)" stroke-opacity="0.5" stroke-width="5.57251"/>
<path opacity="0.310345" d="M558.837 63.5619C567.432 57.911 578.474 56.0243 591.915 57.9484C605.38 59.8758 621.073 65.6084 638.692 74.9684C673.927 93.6868 716.339 126.63 763.171 171.289C856.801 260.577 967.642 396.262 1073.44 557.186C1179.24 718.109 1259.88 873.656 1304.74 995.009C1327.17 1055.71 1340.61 1107.7 1343.82 1147.47C1345.43 1167.36 1344.47 1184.04 1340.91 1197.16C1337.35 1210.27 1331.24 1219.66 1322.64 1225.31C1314.05 1230.96 1303 1232.84 1289.56 1230.92C1276.1 1228.99 1260.41 1223.26 1242.79 1213.9C1207.55 1195.18 1165.14 1162.24 1118.31 1117.58C1024.68 1028.29 913.836 892.606 808.035 731.682C702.234 570.759 621.601 415.212 576.742 293.859C554.305 233.161 540.873 181.165 537.655 141.396C536.046 121.511 537.004 104.83 540.571 91.7051C544.133 78.6024 550.242 69.2128 558.837 63.5619Z" stroke="url(#paint8_linear_1_411)" stroke-opacity="0.5" stroke-width="5.57251"/>
<path opacity="0.344828" d="M608.711 27.3705C617.765 22.4902 628.93 21.5731 642.152 24.6613C655.397 27.7549 670.532 34.8335 687.267 45.6934C720.736 67.4115 760.116 103.925 802.877 152.497C888.369 249.606 986.963 394.435 1078.34 563.967C1169.71 733.499 1236.48 895.481 1270.59 1020.28C1287.65 1082.7 1296.5 1135.67 1296.24 1175.57C1296.11 1195.52 1293.7 1212.06 1289 1224.82C1284.31 1237.56 1277.41 1246.38 1268.36 1251.26C1259.3 1256.14 1248.14 1257.06 1234.91 1253.97C1221.67 1250.88 1206.53 1243.8 1189.8 1232.94C1156.33 1211.22 1116.95 1174.71 1074.19 1126.14C988.697 1029.03 890.103 884.2 798.73 714.667C707.356 545.135 640.587 383.153 606.476 258.352C589.414 195.929 580.565 142.96 580.825 103.063C580.955 83.1127 583.363 66.5791 588.061 53.8147C592.751 41.0722 599.656 32.2508 608.711 27.3705Z" stroke="url(#paint9_linear_1_411)" stroke-opacity="0.5" stroke-width="5.57251"/>
<path opacity="0.758621" d="M1277.1 -13.7044C1285.86 -8.30281 1292.23 0.907328 1296.17 13.9023C1300.12 26.9197 1301.55 43.5658 1300.51 63.4893C1298.44 103.333 1286.51 155.695 1265.83 217.012C1224.47 339.605 1148.34 497.404 1047.21 661.302C946.079 825.2 839.183 964.014 748.158 1055.96C702.629 1101.94 661.181 1136.09 626.498 1155.81C609.156 1165.68 593.634 1171.86 580.23 1174.17C566.85 1176.48 555.758 1174.91 547.004 1169.51C538.251 1164.11 531.874 1154.9 527.937 1141.9C523.994 1128.89 522.557 1112.24 523.594 1092.32C525.668 1052.47 537.6 1000.11 558.284 938.795C599.636 816.202 675.765 658.403 776.898 494.505C878.03 330.608 984.926 191.793 1075.95 99.8512C1121.48 53.8639 1162.93 19.7158 1197.61 -0.00758421C1214.95 -9.86999 1230.48 -16.0513 1243.88 -18.3649C1257.26 -20.6745 1268.35 -19.1059 1277.1 -13.7044Z" stroke="url(#paint10_linear_1_411)" stroke-opacity="0.5" stroke-width="5.57251"/>
<path opacity="0.793103" d="M1325.07 15.2448C1333.32 21.3887 1338.87 31.1196 1341.66 44.4082C1344.46 57.7197 1344.44 74.4277 1341.67 94.185C1336.13 133.697 1319.68 184.819 1293.73 244.101C1241.85 362.622 1152.26 513.186 1037.23 667.646C922.193 822.106 803.605 951.075 704.913 1034.73C655.549 1076.58 611.282 1106.98 575.013 1123.61C556.878 1131.92 540.875 1136.73 527.321 1137.86C513.791 1139 502.878 1136.47 494.628 1130.33C486.378 1124.18 480.829 1114.45 478.04 1101.16C475.246 1087.85 475.265 1071.14 478.035 1051.39C483.573 1011.87 500.023 960.752 525.973 901.47C577.852 782.948 667.445 632.385 782.477 477.925C897.51 323.465 1016.1 194.495 1114.79 110.837C1164.15 68.9924 1208.42 38.5866 1244.69 21.9611C1262.82 13.6477 1278.83 8.84273 1292.38 7.70614C1305.91 6.57151 1316.82 9.10081 1325.07 15.2448Z" stroke="url(#paint11_linear_1_411)" stroke-opacity="0.5" stroke-width="5.57251"/>
<path opacity="0.827586" d="M1369.88 48.4389C1377.56 55.2785 1382.24 65.456 1383.86 78.9371C1385.48 92.4415 1384.01 109.084 1379.53 128.525C1370.57 167.404 1349.72 216.897 1318.71 273.692C1256.69 387.241 1154.32 529.423 1026.26 673.27C898.206 817.116 768.829 935.259 663.222 1010C610.399 1047.38 563.651 1073.81 526.07 1087.21C507.279 1093.92 490.919 1097.31 477.317 1097.26C463.739 1097.21 453.089 1093.74 445.406 1086.9C437.723 1080.06 433.042 1069.88 431.422 1056.4C429.799 1042.9 431.275 1026.25 435.755 1006.81C444.717 967.934 465.56 918.44 496.577 861.646C558.589 748.096 660.963 605.914 789.02 462.068C917.077 318.222 1046.45 200.078 1152.06 125.339C1204.88 87.9568 1251.63 61.5249 1289.21 48.1236C1308 41.4225 1324.36 38.0305 1337.97 38.0796C1351.54 38.1285 1362.19 41.5993 1369.88 48.4389Z" stroke="url(#paint12_linear_1_411)" stroke-opacity="0.5" stroke-width="5.57251"/>
<path opacity="0.862069" d="M1411.17 85.5844C1418.23 93.0675 1422 103.614 1422.44 117.185C1422.88 130.78 1419.96 147.231 1413.8 166.207C1401.49 204.156 1376.41 251.645 1340.56 305.52C1268.89 413.233 1154.51 545.952 1014.4 678.09C874.297 810.228 735.116 916.645 623.396 981.895C567.516 1014.53 518.642 1036.79 480.037 1046.86C460.733 1051.9 444.139 1053.85 430.594 1052.62C417.072 1051.39 406.764 1047 399.706 1039.52C392.649 1032.04 388.873 1021.49 388.434 1007.92C387.994 994.324 390.915 977.873 397.073 958.897C409.389 920.947 434.466 873.459 470.315 819.583C541.988 711.871 656.364 579.152 796.471 447.014C936.577 314.876 1075.76 208.458 1187.48 143.208C1243.36 110.572 1292.23 88.3148 1330.84 78.2399C1350.14 73.202 1366.73 71.2488 1380.28 72.4831C1393.8 73.7153 1404.11 78.1012 1411.17 85.5844Z" stroke="url(#paint13_linear_1_411)" stroke-opacity="0.5" stroke-width="5.57251"/>
<path opacity="0.896552" d="M1448.61 126.359C1454.99 134.429 1457.83 145.265 1457.08 158.822C1456.34 172.403 1451.99 188.537 1444.2 206.904C1428.63 243.636 1399.51 288.759 1359.1 339.304C1278.31 440.36 1152.8 562.605 1001.71 682.03C850.622 801.454 702.695 895.336 585.713 950.601C527.202 978.243 476.574 996.156 437.238 1002.83C417.568 1006.16 400.867 1006.66 387.481 1004.25C374.118 1001.85 364.232 996.58 357.853 988.51C351.474 980.44 348.633 969.604 349.378 956.047C350.124 942.466 354.468 926.332 362.256 907.965C377.833 871.233 406.954 826.11 447.362 775.565C528.15 674.509 653.658 552.264 804.748 432.839C955.838 313.415 1103.76 219.533 1220.75 164.268C1279.26 136.626 1329.89 118.713 1369.22 112.042C1388.89 108.705 1405.59 108.206 1418.98 110.616C1432.34 113.022 1442.23 118.29 1448.61 126.359Z" stroke="url(#paint14_linear_1_411)" stroke-opacity="0.5" stroke-width="5.57251"/>
<path opacity="0.931035" d="M1481.9 170.414C1487.55 179.009 1489.43 190.051 1487.51 203.493C1485.58 216.957 1479.85 232.651 1470.49 250.269C1451.77 285.504 1418.83 327.916 1374.17 374.748C1284.88 468.378 1149.2 579.219 988.272 685.021C827.349 790.822 671.802 871.454 550.449 916.313C489.751 938.751 437.755 952.182 397.986 955.401C378.101 957.01 361.42 956.052 348.295 952.484C335.192 948.923 325.803 942.814 320.152 934.219C314.501 925.623 312.614 914.581 314.538 901.14C316.466 887.676 322.198 871.982 331.558 854.364C350.277 819.129 383.22 776.716 427.879 729.885C517.167 636.255 652.852 525.413 813.776 419.612C974.699 313.811 1130.25 233.178 1251.6 188.32C1312.3 165.882 1364.29 152.45 1404.06 149.232C1423.95 147.623 1440.63 148.581 1453.75 152.149C1466.86 155.71 1476.25 161.819 1481.9 170.414Z" stroke="url(#paint15_linear_1_411)" stroke-opacity="0.5" stroke-width="5.57251"/>
<path opacity="0.965517" d="M1510.76 217.379C1515.64 226.434 1516.56 237.598 1513.47 250.821C1510.38 264.066 1503.3 279.2 1492.44 295.936C1470.72 329.405 1434.21 368.785 1385.64 411.546C1288.53 497.038 1143.7 595.632 974.167 687.005C804.635 778.378 642.653 845.147 517.852 879.259C455.429 896.32 402.46 905.169 362.563 904.909C342.613 904.779 326.079 902.371 313.315 897.673C300.572 892.983 291.751 886.079 286.871 877.024C281.99 867.969 281.073 856.805 284.161 843.582C287.255 830.337 294.334 815.203 305.193 798.467C326.912 764.998 363.426 725.618 411.997 682.857C509.106 597.365 653.935 498.771 823.467 407.398C992.999 316.025 1154.98 249.256 1279.78 215.144C1342.21 198.083 1395.17 189.234 1435.07 189.494C1455.02 189.624 1471.56 192.032 1484.32 196.73C1497.06 201.42 1505.88 208.324 1510.76 217.379Z" stroke="url(#paint16_linear_1_411)" stroke-opacity="0.5" stroke-width="5.57251"/>
<path d="M1534.97 266.852C1539.05 276.297 1538.99 287.499 1534.76 300.402C1530.52 313.327 1522.15 327.787 1509.87 343.513C1485.32 374.961 1445.51 411.009 1393.4 449.374C1289.21 526.077 1136.34 611.673 959.489 687.923C782.638 764.173 615.453 816.57 488.154 839.674C424.481 851.231 370.942 855.43 331.22 851.693C311.357 849.825 295.096 845.985 282.79 840.192C270.505 834.41 262.318 826.763 258.246 817.317C254.173 807.871 254.233 796.669 258.462 783.767C262.698 770.842 271.069 756.382 283.346 740.656C307.898 709.207 347.705 673.159 399.819 634.794C504.009 558.091 656.88 472.496 833.731 396.246C1010.58 319.996 1177.77 267.599 1305.07 244.494C1368.74 232.938 1422.28 228.739 1462 232.475C1481.86 234.344 1498.12 238.184 1510.43 243.976C1522.72 249.759 1530.9 257.406 1534.97 266.852Z" stroke="url(#paint17_linear_1_411)" stroke-opacity="0.5" stroke-width="5.57251"/>
<defs>
<linearGradient id="paint0_linear_1_411" x1="912.015" y1="840.172" x2="1004.77" y2="530.561" gradientUnits="userSpaceOnUse">
<stop offset="0.486979" stop-color="white" stop-opacity="0.34"/>
<stop offset="1" stop-color="white" stop-opacity="0"/>
</linearGradient>
<linearGradient id="paint1_linear_1_411" x1="896.492" y1="830.427" x2="1015.87" y2="530.078" gradientUnits="userSpaceOnUse">
<stop offset="0.486979" stop-color="white" stop-opacity="0.34"/>
<stop offset="1" stop-color="white" stop-opacity="0"/>
</linearGradient>
<linearGradient id="paint2_linear_1_411" x1="881.425" y1="819.535" x2="1026.53" y2="530.734" gradientUnits="userSpaceOnUse">
<stop offset="0.486979" stop-color="white" stop-opacity="0.34"/>
<stop offset="1" stop-color="white" stop-opacity="0"/>
</linearGradient>
<linearGradient id="paint3_linear_1_411" x1="866.91" y1="807.544" x2="1036.63" y2="532.488" gradientUnits="userSpaceOnUse">
<stop offset="0.486979" stop-color="white" stop-opacity="0.34"/>
<stop offset="1" stop-color="white" stop-opacity="0"/>
</linearGradient>
<linearGradient id="paint4_linear_1_411" x1="853.038" y1="794.51" x2="1046.09" y2="535.293" gradientUnits="userSpaceOnUse">
<stop offset="0.486979" stop-color="white" stop-opacity="0.34"/>
<stop offset="1" stop-color="white" stop-opacity="0"/>
</linearGradient>
<linearGradient id="paint5_linear_1_411" x1="839.905" y1="780.486" x2="1054.81" y2="539.081" gradientUnits="userSpaceOnUse">
<stop offset="0.486979" stop-color="white" stop-opacity="0.34"/>
<stop offset="1" stop-color="white" stop-opacity="0"/>
</linearGradient>
<linearGradient id="paint6_linear_1_411" x1="827.584" y1="765.544" x2="1062.71" y2="543.787" gradientUnits="userSpaceOnUse">
<stop offset="0.486979" stop-color="white" stop-opacity="0.34"/>
<stop offset="1" stop-color="white" stop-opacity="0"/>
</linearGradient>
<linearGradient id="paint7_linear_1_411" x1="816.164" y1="749.761" x2="1069.73" y2="549.341" gradientUnits="userSpaceOnUse">
<stop offset="0.486979" stop-color="white" stop-opacity="0.34"/>
<stop offset="1" stop-color="white" stop-opacity="0"/>
</linearGradient>
<linearGradient id="paint8_linear_1_411" x1="805.707" y1="733.213" x2="1075.77" y2="555.655" gradientUnits="userSpaceOnUse">
<stop offset="0.486979" stop-color="white" stop-opacity="0.34"/>
<stop offset="1" stop-color="white" stop-opacity="0"/>
</linearGradient>
<linearGradient id="paint9_linear_1_411" x1="796.277" y1="715.989" x2="1080.79" y2="562.645" gradientUnits="userSpaceOnUse">
<stop offset="0.486979" stop-color="white" stop-opacity="0.34"/>
<stop offset="1" stop-color="white" stop-opacity="0"/>
</linearGradient>
<linearGradient id="paint10_linear_1_411" x1="774.526" y1="493.042" x2="1049.58" y2="662.765" gradientUnits="userSpaceOnUse">
<stop offset="0.486979" stop-color="white" stop-opacity="0.34"/>
<stop offset="1" stop-color="white" stop-opacity="0"/>
</linearGradient>
<linearGradient id="paint11_linear_1_411" x1="780.242" y1="476.261" x2="1039.46" y2="669.31" gradientUnits="userSpaceOnUse">
<stop offset="0.486979" stop-color="white" stop-opacity="0.34"/>
<stop offset="1" stop-color="white" stop-opacity="0"/>
</linearGradient>
<linearGradient id="paint12_linear_1_411" x1="786.939" y1="460.215" x2="1028.34" y2="675.122" gradientUnits="userSpaceOnUse">
<stop offset="0.486979" stop-color="white" stop-opacity="0.34"/>
<stop offset="1" stop-color="white" stop-opacity="0"/>
</linearGradient>
<linearGradient id="paint13_linear_1_411" x1="794.559" y1="444.987" x2="1016.32" y2="680.117" gradientUnits="userSpaceOnUse">
<stop offset="0.486979" stop-color="white" stop-opacity="0.34"/>
<stop offset="1" stop-color="white" stop-opacity="0"/>
</linearGradient>
<linearGradient id="paint14_linear_1_411" x1="803.02" y1="430.654" x2="1003.44" y2="684.216" gradientUnits="userSpaceOnUse">
<stop offset="0.486979" stop-color="white" stop-opacity="0.34"/>
<stop offset="1" stop-color="white" stop-opacity="0"/>
</linearGradient>
<linearGradient id="paint15_linear_1_411" x1="812.245" y1="417.284" x2="989.803" y2="687.349" gradientUnits="userSpaceOnUse">
<stop offset="0.486979" stop-color="white" stop-opacity="0.34"/>
<stop offset="1" stop-color="white" stop-opacity="0"/>
</linearGradient>
<linearGradient id="paint16_linear_1_411" x1="822.145" y1="404.945" x2="975.489" y2="689.458" gradientUnits="userSpaceOnUse">
<stop offset="0.486979" stop-color="white" stop-opacity="0.34"/>
<stop offset="1" stop-color="white" stop-opacity="0"/>
</linearGradient>
<linearGradient id="paint17_linear_1_411" x1="832.628" y1="393.687" x2="960.592" y2="690.481" gradientUnits="userSpaceOnUse">
<stop offset="0.486979" stop-color="white" stop-opacity="0.34"/>
<stop offset="1" stop-color="white" stop-opacity="0"/>
</linearGradient>
</defs>
</svg>
