<svg width="15" height="16" viewBox="0 0 15 16" fill="none" xmlns="http://www.w3.org/2000/svg">
<path d="M13.6449 6.37148L3.60717 0.289582C3.30522 0.107216 2.9585 0.00733139 2.60333 0.000388397C2.24816 -0.00655459 1.89761 0.0796994 1.58839 0.250117C1.27917 0.420536 1.02266 0.668848 0.845713 0.96905C0.668769 1.26925 0.577904 1.6103 0.582634 1.95647V14.0688C0.582634 14.5809 0.791361 15.072 1.1629 15.434C1.53443 15.7961 2.03834 15.9995 2.56377 15.9995C2.92991 16.0073 3.29108 15.9159 3.60717 15.7357L13.6449 9.67952C13.9316 9.50636 14.1682 9.26474 14.3323 8.97754C14.4963 8.69034 14.5825 8.36708 14.5825 8.03837C14.5825 7.70967 14.4963 7.3864 14.3323 7.0992C14.1682 6.812 13.9316 6.57038 13.6449 6.39723V6.37148Z" fill="white"/>
</svg>
