<svg width="16" height="15" viewBox="0 0 16 15" fill="none" xmlns="http://www.w3.org/2000/svg">
<g clip-path="url(#clip0_151_433)">
<path fill-rule="evenodd" clip-rule="evenodd" d="M13.7342 4.7468C13.7342 4.61651 13.7273 4.49377 13.7219 4.36486C14.3019 3.96035 14.803 3.45301 15.2003 2.86795C14.6595 3.09741 14.0874 3.24486 13.5031 3.30543C14.1184 2.95203 14.581 2.38338 14.8019 1.7091C14.2204 2.04063 13.5862 2.26979 12.9271 2.38658C12.651 2.09001 12.3179 1.85224 11.9476 1.68752C11.5774 1.5228 11.1778 1.43451 10.7726 1.42796C10.3864 1.42103 10.0027 1.4912 9.64392 1.63437C9.28516 1.77754 8.95855 1.99082 8.68322 2.26175C8.40789 2.53268 8.18936 2.8558 8.04042 3.21221C7.89148 3.56862 7.81513 3.95115 7.81583 4.33743C7.81583 4.56714 7.83983 4.79068 7.89332 5.00874C5.43573 4.85788 3.25791 3.65309 1.80283 1.83253C1.53847 2.2848 1.39952 2.7994 1.40032 3.32326C1.40032 4.35869 1.92352 5.27822 2.71757 5.81651C2.24598 5.79625 1.78608 5.66341 1.37632 5.42908V5.46954C1.37634 6.15681 1.61212 6.82327 2.04429 7.35765C2.47647 7.89203 3.07887 8.26199 3.75094 8.40575C3.49729 8.47327 3.23582 8.50693 2.97334 8.50587C2.78577 8.50267 2.59891 8.48201 2.41517 8.44415C2.6002 9.03569 2.96594 9.55438 3.461 9.9273C3.95606 10.3002 4.55553 10.5086 5.17516 10.5232C4.56216 11.0044 3.86004 11.3596 3.10923 11.5684C2.35841 11.7771 1.57373 11.8354 0.800323 11.7397C2.14706 12.6196 3.72141 13.0872 5.33013 13.085C10.761 13.085 13.7342 8.61832 13.7342 4.7468Z" fill="#B6C0CD"/>
</g>
<defs>
<clipPath id="clip0_151_433">
<rect x="0.800781" y="0.057373" width="14.3999" height="14.3999" fill="white"/>
</clipPath>
</defs>
</svg>
