<svg width="16" height="15" viewBox="0 0 16 15" fill="none" xmlns="http://www.w3.org/2000/svg">
<g clip-path="url(#clip0_151_419)">
<path fill-rule="evenodd" clip-rule="evenodd" d="M0.982121 14.0332H4.06796V4.88832H0.982121V14.0332ZM2.54494 0.480225C1.48951 0.480225 0.800003 1.16295 0.800003 2.05999C0.800003 2.93924 1.47087 3.63975 2.50513 3.63975H2.52631C3.60207 3.63975 4.27125 2.93924 4.27125 2.05999C4.25177 1.16211 3.60207 0.480225 2.54494 0.480225ZM15.2 8.78818V14.0332H12.1125V9.13971C12.1125 7.91147 11.6669 7.07288 10.548 7.07288C9.69497 7.07288 9.19012 7.63787 8.96396 8.18507C8.88348 8.3799 8.86231 8.6535 8.86231 8.9254V14.0332H5.77647C5.77647 14.0332 5.81883 5.74724 5.77647 4.88832H8.864V6.18432C8.85807 6.19448 8.84876 6.2038 8.84283 6.21481H8.864V6.18347C9.27483 5.56173 10.0058 4.67401 11.6457 4.67401C13.6753 4.67401 15.2 5.98018 15.2 8.78818Z" fill="#B6C0CD"/>
</g>
<defs>
<clipPath id="clip0_151_419">
<rect x="0.799805" y="0.0566406" width="14.4" height="14.4" fill="white"/>
</clipPath>
</defs>
</svg>
