<svg width="32" height="33" viewBox="0 0 32 33" fill="none" xmlns="http://www.w3.org/2000/svg">
<rect x="0.335632" y="0.857666" width="32" height="32" rx="8" fill="#206ECF"/>
<path d="M24.3356 16.8577C24.3356 21.2759 20.7539 24.8577 16.3356 24.8577C11.9174 24.8577 8.33563 21.2759 8.33563 16.8577C8.33563 12.4394 11.9174 8.85767 16.3356 8.85767C20.7539 8.85767 24.3356 12.4394 24.3356 16.8577Z" fill="white"/>
<path d="M17.2245 14.191C17.2245 13.7001 16.8266 13.3021 16.3356 13.3021C15.8447 13.3021 15.4467 13.7001 15.4467 14.191V15.9688H13.669C13.178 15.9688 12.7801 16.3667 12.7801 16.8577C12.7801 17.3486 13.178 17.7466 13.669 17.7466H15.4467V19.5243C15.4467 20.0153 15.8447 20.4132 16.3356 20.4132C16.8266 20.4132 17.2245 20.0153 17.2245 19.5243V17.7466H19.0023C19.4932 17.7466 19.8912 17.3486 19.8912 16.8577C19.8912 16.3667 19.4932 15.9688 19.0023 15.9688H17.2245V14.191Z" fill="#206ECF"/>
</svg>
