<svg width="33" height="34" viewBox="0 0 33 34" fill="none" xmlns="http://www.w3.org/2000/svg">
<rect x="0.718506" y="0.857666" width="32.144" height="32.144" rx="8.03561" fill="#206ECF"/>
<path d="M10.6147 18.9246H8.77476V18.2558C8.76463 17.3181 9.01299 16.3956 9.49257 15.5897C9.97215 14.7838 10.6644 14.1256 11.4935 13.6872C12.3102 13.2845 13.1947 13.0373 14.1018 12.9582C13.7055 13.4486 13.308 13.9699 12.9094 14.5218C12.0116 15.9163 11.2434 17.39 10.6147 18.9246ZM19.1969 20.806C17.8026 21.705 16.3288 22.4742 14.7941 23.104V24.9439H15.4629C16.4006 24.9541 17.3231 24.7057 18.129 24.2261C18.9349 23.7466 19.5931 23.0543 20.0315 22.2252C20.4342 21.4085 20.6814 20.524 20.7605 19.6169C20.2723 20.0115 19.7511 20.4078 19.1969 20.806ZM24.8262 10.8929C24.7373 13.8042 22.6412 16.6915 18.4177 19.7212C17.2683 20.4663 16.0558 21.109 14.7941 21.642V21.2655C14.7911 20.6456 14.5435 20.0519 14.1051 19.6136C13.6668 19.1752 13.0731 18.9276 12.4532 18.9246H12.0767C12.6103 17.6629 13.254 16.4506 14.0002 15.3017C17.0225 11.0848 19.9051 8.98876 22.8118 8.89246C24.2604 8.89246 24.8262 9.48435 24.8262 10.8929ZM20.8134 14.5774C20.8134 14.1339 20.6372 13.7086 20.3236 13.3951C20.0101 13.0815 19.5848 12.9053 19.1413 12.9053C18.6979 12.9053 18.2726 13.0815 17.959 13.3951C17.6455 13.7086 17.4693 14.1339 17.4693 14.5774C17.4693 15.0208 17.6455 15.4461 17.959 15.7597C18.2726 16.0732 18.6979 16.2494 19.1413 16.2494C19.5848 16.2494 20.0101 16.0732 20.3236 15.7597C20.6372 15.4461 20.8134 15.0208 20.8134 14.5774ZM9.69371 24.8001C10.4468 24.6664 12.2626 24.2932 12.8692 23.6872C13.0556 23.5009 13.2034 23.2797 13.3042 23.0363C13.405 22.7928 13.4569 22.5319 13.4569 22.2684C13.4569 22.0049 13.405 21.7439 13.3042 21.5005C13.2034 21.257 13.0556 21.0358 12.8692 20.8495C12.6829 20.6631 12.4617 20.5153 12.2182 20.4145C11.9748 20.3137 11.7139 20.2618 11.4503 20.2618C10.9182 20.2618 10.4078 20.4732 10.0315 20.8495C9.42551 21.4561 9.05165 23.2719 8.91855 24.025L8.75336 24.9653L9.69371 24.8001Z" fill="white"/>
<path d="M9.69381 24.7995C10.447 24.6657 12.263 24.2925 12.8697 23.6865C13.056 23.5001 13.2039 23.2789 13.3047 23.0354C13.4056 22.7919 13.4575 22.531 13.4575 22.2674C13.4575 22.0039 13.4056 21.7429 13.3047 21.4995C13.2039 21.256 13.056 21.0348 12.8697 20.8484C12.6833 20.6621 12.4621 20.5142 12.2186 20.4134C11.9751 20.3125 11.7142 20.2606 11.4506 20.2606C10.9184 20.2606 10.408 20.4721 10.0316 20.8484C9.42559 21.4551 9.05168 23.2711 8.91857 24.0243L8.75336 24.9647L9.69381 24.7995Z" fill="white"/>
</svg>
